<svg width="53" height="62" viewBox="0 0 53 62" fill="none" xmlns="http://www.w3.org/2000/svg">
<g filter="url(#filter0_d_572_9157)">
<mask id="path-1-outside-1_572_9157" maskUnits="userSpaceOnUse" x="4" y="0" width="45" height="54" fill="black">
<rect fill="white" x="4" width="45" height="54"/>
<path d="M37.8368 26.6464C40.8459 27.3259 43.224 28.8304 44.9712 31.16C46.7669 33.4411 47.6648 36.0619 47.6648 39.0224C47.6648 43.3904 46.1603 46.812 43.1512 49.2872C40.1421 51.7624 35.9197 53 30.484 53H5.0768V1.67599H29.6832C34.9248 1.67599 39.0259 2.8408 41.9864 5.1704C44.9955 7.5 46.5 10.776 46.5 14.9984C46.5 18.0075 45.6992 20.5312 44.0976 22.5696C42.5445 24.5595 40.4576 25.9184 37.8368 26.6464ZM19.3456 22.06H26.5528C30.1443 22.06 31.94 20.5797 31.94 17.6192C31.94 14.5616 30.1443 13.0328 26.5528 13.0328H19.3456V22.06ZM27.6448 41.4976C31.2363 41.4976 33.032 39.9931 33.032 36.984C33.032 35.4309 32.5467 34.2419 31.576 33.4168C30.6539 32.5917 29.3192 32.1792 27.572 32.1792H19.3456V41.4976H27.6448Z"/>
</mask>
<path d="M37.8368 26.6464L37.5692 25.6829L37.6165 27.6218L37.8368 26.6464ZM44.9712 31.16L44.1712 31.76L44.1782 31.7694L44.1855 31.7786L44.9712 31.16ZM43.1512 49.2872L43.7865 50.0595L43.7865 50.0595L43.1512 49.2872ZM5.0768 53H4.0768V54H5.0768V53ZM5.0768 1.67599V0.675995H4.0768V1.67599H5.0768ZM41.9864 5.1704L41.368 5.95629L41.3742 5.96112L41.9864 5.1704ZM44.0976 22.5696L43.3113 21.9518L43.3093 21.9543L44.0976 22.5696ZM19.3456 22.06H18.3456V23.06H19.3456V22.06ZM19.3456 13.0328V12.0328H18.3456V13.0328H19.3456ZM31.576 33.4168L30.9092 34.162L30.9187 34.1705L30.9284 34.1787L31.576 33.4168ZM19.3456 32.1792V31.1792H18.3456V32.1792H19.3456ZM19.3456 41.4976H18.3456V42.4976H19.3456V41.4976ZM37.8368 26.6464L37.6165 27.6218C40.4088 28.2524 42.5754 29.6323 44.1712 31.76L44.9712 31.16L45.7712 30.56C43.8726 28.0285 41.2829 26.3994 38.0571 25.671L37.8368 26.6464ZM44.9712 31.16L44.1855 31.7786C45.8395 33.8796 46.6648 36.2814 46.6648 39.0224H47.6648H48.6648C48.6648 35.8423 47.6944 33.0026 45.7569 30.5414L44.9712 31.16ZM47.6648 39.0224H46.6648C46.6648 43.1323 45.2643 46.2542 42.5159 48.5149L43.1512 49.2872L43.7865 50.0595C47.0563 47.3698 48.6648 43.6485 48.6648 39.0224H47.6648ZM43.1512 49.2872L42.5159 48.5149C39.7451 50.7942 35.7785 52 30.484 52V53V54C36.061 54 40.5392 52.7306 43.7865 50.0595L43.1512 49.2872ZM30.484 53V52H5.0768V53V54H30.484V53ZM5.0768 53H6.0768V1.67599H5.0768H4.0768V53H5.0768ZM5.0768 1.67599V2.67599H29.6832V1.67599V0.675995H5.0768V1.67599ZM29.6832 1.67599V2.67599C34.7869 2.67599 38.6414 3.81071 41.368 5.95627L41.9864 5.1704L42.6048 4.38453C39.4104 1.87088 35.0628 0.675995 29.6832 0.675995V1.67599ZM41.9864 5.1704L41.3742 5.96112C44.1095 8.07878 45.5 11.0466 45.5 14.9984H46.5H47.5C47.5 10.5054 45.8814 6.92121 42.5986 4.37967L41.9864 5.1704ZM46.5 14.9984H45.5C45.5 17.821 44.7529 20.117 43.3113 21.9518L44.0976 22.5696L44.8839 23.1874C46.6455 20.9454 47.5 18.1939 47.5 14.9984H46.5ZM44.0976 22.5696L43.3093 21.9543C41.8984 23.762 40.0006 25.0075 37.5692 25.6829L37.8368 26.6464L38.1044 27.6099C40.9147 26.8293 43.1906 25.357 44.8859 23.1849L44.0976 22.5696ZM19.3456 22.06V23.06H26.5528V22.06V21.06H19.3456V22.06ZM26.5528 22.06V23.06C28.4608 23.06 30.0776 22.6708 31.2293 21.7214C32.4179 20.7416 32.94 19.31 32.94 17.6192H31.94H30.94C30.94 18.8889 30.5642 19.6777 29.9571 20.1782C29.313 20.7091 28.2363 21.06 26.5528 21.06V22.06ZM31.94 17.6192H32.94C32.94 15.8904 32.4248 14.4254 31.2414 13.418C30.0889 12.4368 28.4669 12.0328 26.5528 12.0328V13.0328V14.0328C28.2302 14.0328 29.3017 14.3932 29.945 14.9408C30.5574 15.4622 30.94 16.2904 30.94 17.6192H31.94ZM26.5528 13.0328V12.0328H19.3456V13.0328V14.0328H26.5528V13.0328ZM19.3456 13.0328H18.3456V22.06H19.3456H20.3456V13.0328H19.3456ZM27.6448 41.4976V42.4976C29.5558 42.4976 31.1753 42.101 32.3274 41.1357C33.5134 40.142 34.032 38.6937 34.032 36.984H33.032H32.032C32.032 38.2834 31.6527 39.0918 31.043 39.6027C30.3994 40.1419 29.3253 40.4976 27.6448 40.4976V41.4976ZM33.032 36.984H34.032C34.032 35.2079 33.4664 33.7112 32.2237 32.6549L31.576 33.4168L30.9284 34.1787C31.627 34.7726 32.032 35.654 32.032 36.984H33.032ZM31.576 33.4168L32.2428 32.6716C31.0739 31.6257 29.4643 31.1792 27.572 31.1792V32.1792V33.1792C29.1741 33.1792 30.2338 33.5577 30.9092 34.162L31.576 33.4168ZM27.572 32.1792V31.1792H19.3456V32.1792V33.1792H27.572V32.1792ZM19.3456 32.1792H18.3456V41.4976H19.3456H20.3456V32.1792H19.3456ZM19.3456 41.4976V42.4976H27.6448V41.4976V40.4976H19.3456V41.4976Z" fill="#454545" mask="url(#path-1-outside-1_572_9157)"/>
</g>
<defs>
<filter id="filter0_d_572_9157" x="0.0767822" y="0.675781" width="52.588" height="61.3242" filterUnits="userSpaceOnUse" color-interpolation-filters="sRGB">
<feFlood flood-opacity="0" result="BackgroundImageFix"/>
<feColorMatrix in="SourceAlpha" type="matrix" values="0 0 0 0 0 0 0 0 0 0 0 0 0 0 0 0 0 0 127 0" result="hardAlpha"/>
<feOffset dy="4"/>
<feGaussianBlur stdDeviation="2"/>
<feComposite in2="hardAlpha" operator="out"/>
<feColorMatrix type="matrix" values="0 0 0 0 0 0 0 0 0 0 0 0 0 0 0 0 0 0 0.25 0"/>
<feBlend mode="normal" in2="BackgroundImageFix" result="effect1_dropShadow_572_9157"/>
<feBlend mode="normal" in="SourceGraphic" in2="effect1_dropShadow_572_9157" result="shape"/>
</filter>
</defs>
</svg>
