<svg width="349" height="67" viewBox="0 0 349 67" fill="none" xmlns="http://www.w3.org/2000/svg">
<path d="M269.499 27.2314V66.0068H255.23L243.298 47.9941C240.655 50.4182 238.342 52.6258 236.229 54.6094V66.0068H221.96V65.1045C220.56 65.6643 219.09 66.0973 217.5 66.3965C207.294 66.9092 201 66.3965 178 66.3965H165.5C165.5 66.3965 166.379 66.2892 167.97 66.0068H166.294V14.6826H180.562L199.563 43.7305V14.6826H213.832V47.4785C216.554 45.6742 219.275 43.7035 221.96 41.5518V14.6826H236.229L236.74 15.4639L282.006 0.385742L269.499 27.2314ZM113.044 14.1729C119.499 14.1729 124.838 15.7259 129.061 18.832C133.283 21.9381 135.904 26.1851 136.923 31.5723H121.562C120.788 30.2983 119.737 29.3015 118.409 28.582L118.141 28.4424C116.821 27.7598 115.266 27.3971 113.478 27.3545L113.117 27.3496C109.526 27.3496 106.687 28.5151 104.6 30.8447C102.561 33.1743 101.542 36.3043 101.542 40.2354L101.555 41.0518C101.683 45.0696 102.77 48.1706 104.817 50.3545C107.05 52.6355 110.278 53.7763 114.5 53.7764C119.499 53.7764 123.067 51.5195 125.202 47.0059H110.86V36.7412H137.505V50.5732C136.389 53.291 134.739 55.8388 132.555 58.2168C130.419 60.5949 127.702 62.5612 124.401 64.1143L123.776 64.3877C120.629 65.7099 117.075 66.3711 113.117 66.3711L112.159 66.3584C107.721 66.239 103.73 65.2828 100.184 63.4912L99.4307 63.0947C95.7451 61.0017 92.8276 58.1622 90.6777 54.5762L90.2578 53.8496C88.2558 50.1186 87.1925 45.8967 87.0674 41.1846L87.0547 40.2354C87.0547 35.188 88.1224 30.6987 90.2578 26.7676C92.4418 22.7879 95.4995 19.7064 99.4307 17.5225C103.362 15.29 107.9 14.1729 113.044 14.1729ZM25.6523 14.6963C30.4327 14.8327 34.2108 15.9929 36.9863 18.1768C39.9953 20.5063 41.4999 23.7827 41.5 28.0049C41.5 31.0139 40.6992 33.5378 39.0977 35.5762C37.5446 37.566 35.4577 38.9253 32.8369 39.6533C35.8459 40.3328 38.2245 41.8374 39.9717 44.167C41.7672 46.448 42.665 49.0689 42.665 52.0293L42.6602 52.4355C42.5692 56.6099 41.0664 59.896 38.1514 62.2939L37.8652 62.5225C35.0696 64.6954 31.2777 65.852 26.4893 65.9922L25.4844 66.0068H0.0771484V14.6826H24.6836L25.6523 14.6963ZM81.751 26.1123H63.1865V34.4844H79.5674V45.332H63.1865V54.5771H81.751V66.0068H48.918V14.6826H81.751V26.1123ZM158.168 66.0068H143.899V14.6826H158.168V66.0068ZM291.896 66.0068H277.627V14.6826H291.896V66.0068ZM323.317 28.8057L331.616 14.6826H347.851L331.398 40.5264L348.943 66.0068H332.126L322.152 51.5195L313.635 66.0068H297.4L314.071 39.7256L296.818 14.6826H313.635L323.317 28.8057ZM113.044 15.1729C108.049 15.1729 103.686 16.2559 99.9248 18.3916L99.916 18.3965C96.1514 20.488 93.2289 23.433 91.1348 27.249C89.0901 31.0148 88.0547 35.3347 88.0547 40.2354C88.0547 45.1821 89.0886 49.5499 91.1318 53.3633C93.2237 57.1287 96.1451 60.076 99.9111 62.2178C103.725 64.3106 108.118 65.3711 113.117 65.3711C117.217 65.3711 120.831 64.6403 123.979 63.2061C127.174 61.7022 129.777 59.8134 131.811 57.5488L131.818 57.541C133.882 55.2936 135.439 52.9027 136.505 50.3701V37.7412H111.86V46.0059H126.781L126.105 47.4336C124.972 49.8299 123.43 51.6817 121.459 52.9287C119.488 54.1756 117.153 54.7764 114.5 54.7764C110.099 54.7763 106.579 53.5838 104.104 51.0547L104.088 51.0391C101.673 48.4631 100.542 44.8077 100.542 40.2354C100.542 36.1294 101.609 32.7424 103.847 30.1855L103.854 30.1768C106.16 27.6032 109.288 26.3496 113.117 26.3496C115.178 26.3496 117.013 26.7358 118.588 27.5479L118.888 27.7041C120.196 28.4135 121.272 29.3716 122.104 30.5723H135.683C134.566 25.9858 132.163 22.3563 128.468 19.6377C124.454 16.6847 119.336 15.1729 113.044 15.1729ZM1.07715 65.0068H25.4844C30.7786 65.0068 34.7448 63.8006 37.5156 61.5215C40.2639 59.2608 41.665 56.1391 41.665 52.0293C41.665 49.2883 40.8395 46.8862 39.1855 44.7852L39.1787 44.7764L39.1709 44.7666C37.5752 42.6391 35.4084 41.2594 32.6162 40.6289L32.5693 38.6895C35.0006 38.0141 36.8988 36.7685 38.3096 34.9609L38.3115 34.959C39.7531 33.1242 40.5 30.8275 40.5 28.0049C40.4999 24.0532 39.1093 21.0854 36.374 18.9678L36.3682 18.9629C33.6416 16.8174 29.787 15.6827 24.6836 15.6826H1.07715V65.0068ZM49.918 65.0068H80.751V55.5771H62.1865V44.332H78.5674V35.4844H62.1865V25.1123H80.751V15.6826H49.918V65.0068ZM144.899 65.0068H157.168V15.6826H144.899V65.0068ZM235.229 55.5469C230.766 59.7025 227.136 62.7824 222.96 64.6777V65.0068H235.229V55.5469ZM257.491 53.0068L248.68 43.1973C247.023 44.6284 245.485 46.0009 244.045 47.3125L255.768 65.0068H268.499V29.3779L257.491 53.0068ZM278.627 65.0068H290.896V15.6826H278.627V65.0068ZM314.896 39.1582L315.271 39.7031L314.916 40.2617L299.22 65.0068H313.062L321.29 51.0127L322.086 49.6592L322.977 50.9521L332.652 65.0068H347.04L330.574 41.0938L330.199 40.5488L330.555 39.9902L346.029 15.6826H332.188L324.18 29.3125L323.382 30.6689L322.492 29.3711L313.108 15.6826H298.722L314.896 39.1582ZM167.294 65.0068H172.834C174.773 64.5601 177.04 63.9849 179.562 63.249V34.0029L181.396 36.7715L195.187 57.5879C200.8 55.1381 206.807 52.0373 212.832 48.1318V15.6826H200.563V47.0859L198.727 44.2773L180.021 15.6826H167.294V65.0068ZM180.562 62.9531C184.612 61.7361 189.265 60.119 194.252 57.9893L180.562 37.3232V62.9531ZM22.5723 44.1855C24.4645 44.1856 26.0744 44.6329 27.2432 45.6787H27.2422C28.4716 46.7341 29.0322 48.2242 29.0322 49.9912C29.0322 51.7008 28.5131 53.149 27.3271 54.1426C26.175 55.1078 24.5554 55.5049 22.6445 55.5049H13.3457V44.1855H22.5723ZM14.3457 45.1855V54.5049H22.6445C26.1237 54.5049 27.9176 53.0925 28.0264 50.2686L28.0322 49.9912C28.0322 48.5352 27.6051 47.3992 26.752 46.583L26.5762 46.4238C25.7116 45.6503 24.4843 45.2387 22.8945 45.1904L22.5723 45.1855H14.3457ZM222.96 40.7412C227.301 37.1778 231.537 33.1342 235.52 28.5469L226.756 18.79L235.759 15.79L235.688 15.6826H222.96V40.7412ZM21.5527 25.04C23.4667 25.04 25.0887 25.4437 26.2412 26.4248C27.4245 27.4322 27.9404 28.8972 27.9404 30.626C27.9404 32.3168 27.4181 33.7487 26.2295 34.7285C25.0779 35.6778 23.4607 36.0664 21.5527 36.0664H13.3457V25.04H21.5527ZM14.3457 26.04V35.0664H21.5527C25.0319 35.0664 26.8258 33.6777 26.9346 30.8994L26.9404 30.626C26.9404 27.6638 25.2546 26.1364 21.8838 26.0439L21.5527 26.04H14.3457Z" fill="#DB143C"/>
</svg>
