<svg
              viewBox="0 0 356 100"
              fill="none"
              xmlns="http://www.w3.org/2000/svg"
              className="w-full h-auto"
              preserveAspectRatio="xMidYMid meet"
            >
              <g filter="url(#filter0_d_571_9148)">
                <path d="M36.8368 53.6532C39.8459 54.3327 42.224 55.8372 43.9712 58.1668C45.7669 60.4479 46.6648 63.0687 46.6648 66.0292C46.6648 70.3972 45.1603 73.8188 42.1512 76.294C39.1421 78.7692 34.9197 80.0068 29.484 80.0068H4.0768V28.6828H28.6832C33.9248 28.6828 38.0259 29.8476 40.9864 32.1772C43.9955 34.5068 45.5 37.7828 45.5 42.0052C45.5 45.0143 44.6992 47.538 43.0976 49.5764C41.5445 51.5663 39.4576 52.9252 36.8368 53.6532ZM18.3456 49.0668H25.5528C29.1443 49.0668 30.94 47.5866 30.94 44.626C30.94 41.5684 29.1443 40.0396 25.5528 40.0396H18.3456V49.0668ZM26.6448 68.5044C30.2363 68.5044 32.032 66.9999 32.032 63.9908C32.032 62.4378 31.5467 61.2487 30.576 60.4236C29.6539 59.5986 28.3192 59.186 26.572 59.186H18.3456V68.5044H26.6448ZM67.187 40.1124V48.4844H83.567V59.3316H67.187V68.5772H85.751V80.0068H52.9182V28.6828H85.751V40.1124H67.187ZM125.562 45.5724C124.737 44.2135 123.596 43.17 122.14 42.442C120.733 41.714 119.058 41.35 117.117 41.35C113.526 41.35 110.686 42.5148 108.599 44.8444C106.561 47.174 105.542 50.3044 105.542 54.2356C105.542 58.6522 106.634 62.0252 108.818 64.3548C111.05 66.6359 114.278 67.7764 118.5 67.7764C123.499 67.7764 127.066 65.5196 129.202 61.006H114.86V50.7412H141.505V64.5732C140.389 67.2911 138.739 69.8391 136.555 72.2172C134.419 74.5954 131.701 76.561 128.401 78.114C125.101 79.6186 121.339 80.3708 117.117 80.3708C111.972 80.3708 107.41 79.2788 103.431 77.0948C99.4994 74.8623 96.4418 71.7804 94.2578 67.8492C92.1223 63.8695 91.0546 59.3316 91.0546 54.2356C91.0546 49.1882 92.1223 44.6988 94.2578 40.7676C96.4418 36.7879 99.4994 33.706 103.431 31.522C107.362 29.2895 111.9 28.1732 117.044 28.1732C123.499 28.1732 128.838 29.7263 133.06 32.8324C137.283 35.9386 139.903 40.1852 140.923 45.5724H125.562ZM162.168 28.6828V80.0068H147.899V28.6828H162.168ZM217.832 80.0068H203.564L184.563 51.3236V80.0068H170.294V28.6828H184.563L203.564 57.73V28.6828H217.832V80.0068ZM273.499 80.0068H259.23L240.229 51.3236V80.0068H225.96V28.6828H240.229L259.23 57.73V28.6828H273.499V80.0068ZM295.896 28.6828V80.0068H281.627V28.6828H295.896ZM336.126 80.0068L326.153 65.5196L317.635 80.0068H301.401L318.072 53.726L300.818 28.6828H317.635L327.317 42.806L335.617 28.6828H351.851L335.398 54.5268L352.943 80.0068H336.126Z" fill="#D9D9D9" />
              </g>
              <path d="M261.491 67.0068L252.68 57.1973C237.606 70.2225 232.304 78.3631 221.5 80.3965C211.294 80.9092 205 80.3965 182 80.3965H169.5C169.5 80.3965 211 75.3969 239.52 42.5469L230.756 32.79L286.006 14.3857L261.491 67.0068Z" fill="#DB143C" />
              <defs>
                <filter
                  id="filter0_d_571_9148"
                  x="0.0767822"
                  y="28.1729"
                  width="356.866"
                  height="60.1982"
                  filterUnits="userSpaceOnUse"
                  colorInterpolationFilters="sRGB"
                >
                  <feFlood floodOpacity="0" result="BackgroundImageFix" />
                  <feColorMatrix
                    in="SourceAlpha"
                    type="matrix"
                    values="0 0 0 0 0 0 0 0 0 0 0 0 0 0 0 0 0 0 127 0"
                    result="hardAlpha"
                  />
                  <feOffset dy="4" />
                  <feGaussianBlur stdDeviation="2" />
                  <feComposite in2="hardAlpha" operator="out" />
                  <feColorMatrix
                    type="matrix"
                    values="0 0 0 0 0 0 0 0 0 0 0 0 0 0 0 0 0 0 0.25 0"
                  />
                  <feBlend
                    mode="normal"
                    in2="BackgroundImageFix"
                    result="effect1_dropShadow_571_9148"
                  />
                  <feBlend
                    mode="normal"
                    in="SourceGraphic"
                    in2="effect1_dropShadow_571_9148"
                    result="shape"
                  />
                </filter>
              </defs>
            </svg>