<svg width="354" height="109" viewBox="0 0 354 109" fill="none" xmlns="http://www.w3.org/2000/svg">
<mask id="path-1-inside-1_571_9148" fill="white">
<path d="M36.8368 53.6532C39.8459 54.3327 42.224 55.8372 43.9712 58.1668C45.7669 60.4479 46.6648 63.0687 46.6648 66.0292C46.6648 70.3972 45.1603 73.8188 42.1512 76.294C39.1421 78.7692 34.9197 80.0068 29.484 80.0068H4.0768V28.6828H28.6832C33.9248 28.6828 38.0259 29.8476 40.9864 32.1772C43.9955 34.5068 45.5 37.7828 45.5 42.0052C45.5 45.0143 44.6992 47.538 43.0976 49.5764C41.5445 51.5663 39.4576 52.9252 36.8368 53.6532ZM18.3456 49.0668H25.5528C29.1443 49.0668 30.94 47.5866 30.94 44.626C30.94 41.5684 29.1443 40.0396 25.5528 40.0396H18.3456V49.0668ZM26.6448 68.5044C30.2363 68.5044 32.032 66.9999 32.032 63.9908C32.032 62.4378 31.5467 61.2487 30.576 60.4236C29.6539 59.5986 28.3192 59.186 26.572 59.186H18.3456V68.5044H26.6448ZM67.187 40.1124V48.4844H83.567V59.3316H67.187V68.5772H85.751V80.0068H52.9182V28.6828H85.751V40.1124H67.187ZM125.562 45.5724C124.737 44.2135 123.596 43.17 122.14 42.442C120.733 41.714 119.058 41.35 117.117 41.35C113.526 41.35 110.686 42.5148 108.599 44.8444C106.561 47.174 105.542 50.3044 105.542 54.2356C105.542 58.6522 106.634 62.0252 108.818 64.3548C111.05 66.6359 114.278 67.7764 118.5 67.7764C123.499 67.7764 127.066 65.5196 129.202 61.006H114.86V50.7412H141.505V64.5732C140.389 67.2911 138.739 69.8391 136.555 72.2172C134.419 74.5954 131.701 76.561 128.401 78.114C125.101 79.6186 121.339 80.3708 117.117 80.3708C111.972 80.3708 107.41 79.2788 103.431 77.0948C99.4994 74.8623 96.4418 71.7804 94.2578 67.8492C92.1223 63.8695 91.0546 59.3316 91.0546 54.2356C91.0546 49.1882 92.1223 44.6988 94.2578 40.7676C96.4418 36.7879 99.4994 33.706 103.431 31.522C107.362 29.2895 111.9 28.1732 117.044 28.1732C123.499 28.1732 128.838 29.7263 133.06 32.8324C137.283 35.9386 139.903 40.1852 140.923 45.5724H125.562ZM162.168 28.6828V80.0068H147.899V28.6828H162.168ZM217.832 80.0068H203.564L184.563 51.3236V80.0068H170.294V28.6828H184.563L203.564 57.73V28.6828H217.832V80.0068ZM273.499 80.0068H259.23L240.229 51.3236V80.0068H225.96V28.6828H240.229L259.23 57.73V28.6828H273.499V80.0068ZM295.896 28.6828V80.0068H281.627V28.6828H295.896ZM336.126 80.0068L326.153 65.5196L317.635 80.0068H301.401L318.072 53.726L300.818 28.6828H317.635L327.317 42.806L335.617 28.6828H351.851L335.398 54.5268L352.943 80.0068H336.126Z"/>
</mask>
<path d="M36.8368 53.6532L36.5692 52.6897L36.6165 54.6287L36.8368 53.6532ZM43.9712 58.1668L43.1712 58.7668L43.1782 58.7762L43.1855 58.7854L43.9712 58.1668ZM42.1512 76.294L42.7865 77.0663L42.7865 77.0663L42.1512 76.294ZM4.0768 80.0068H3.0768V81.0068H4.0768V80.0068ZM4.0768 28.6828V27.6828H3.0768V28.6828H4.0768ZM40.9864 32.1772L40.368 32.9631L40.3742 32.968L40.9864 32.1772ZM43.0976 49.5764L42.3113 48.9586L42.3093 48.9612L43.0976 49.5764ZM18.3456 49.0668H17.3456V50.0668H18.3456V49.0668ZM18.3456 40.0396V39.0396H17.3456V40.0396H18.3456ZM30.576 60.4236L29.9092 61.1689L29.9187 61.1773L29.9284 61.1856L30.576 60.4236ZM18.3456 59.186V58.186H17.3456V59.186H18.3456ZM18.3456 68.5044H17.3456V69.5044H18.3456V68.5044ZM36.8368 53.6532L36.6165 54.6287C39.4088 55.2592 41.5754 56.6391 43.1712 58.7668L43.9712 58.1668L44.7712 57.5668C42.8726 55.0353 40.2829 53.4062 37.0571 52.6778L36.8368 53.6532ZM43.9712 58.1668L43.1855 58.7854C44.8395 60.8864 45.6648 63.2883 45.6648 66.0292H46.6648H47.6648C47.6648 62.8491 46.6944 60.0094 44.7569 57.5483L43.9712 58.1668ZM46.6648 66.0292H45.6648C45.6648 70.1391 44.2643 73.261 41.5159 75.5217L42.1512 76.294L42.7865 77.0663C46.0563 74.3766 47.6648 70.6554 47.6648 66.0292H46.6648ZM42.1512 76.294L41.5159 75.5217C38.7451 77.801 34.7785 79.0068 29.484 79.0068V80.0068V81.0068C35.061 81.0068 39.5392 79.7375 42.7865 77.0663L42.1512 76.294ZM29.484 80.0068V79.0068H4.0768V80.0068V81.0068H29.484V80.0068ZM4.0768 80.0068H5.0768V28.6828H4.0768H3.0768V80.0068H4.0768ZM4.0768 28.6828V29.6828H28.6832V28.6828V27.6828H4.0768V28.6828ZM28.6832 28.6828V29.6828C33.7869 29.6828 37.6414 30.8175 40.368 32.9631L40.9864 32.1772L41.6048 31.3914C38.4104 28.8777 34.0628 27.6828 28.6832 27.6828V28.6828ZM40.9864 32.1772L40.3742 32.968C43.1095 35.0856 44.5 38.0534 44.5 42.0052H45.5H46.5C46.5 37.5123 44.8814 33.9281 41.5986 31.3865L40.9864 32.1772ZM45.5 42.0052H44.5C44.5 44.8279 43.7529 47.1239 42.3113 48.9586L43.0976 49.5764L43.8839 50.1943C45.6455 47.9522 46.5 45.2007 46.5 42.0052H45.5ZM43.0976 49.5764L42.3093 48.9612C40.8984 50.7688 39.0006 52.0143 36.5692 52.6897L36.8368 53.6532L37.1044 54.6168C39.9147 53.8361 42.1906 52.3638 43.8859 50.1917L43.0976 49.5764ZM18.3456 49.0668V50.0668H25.5528V49.0668V48.0668H18.3456V49.0668ZM25.5528 49.0668V50.0668C27.4608 50.0668 29.0776 49.6776 30.2293 48.7283C31.4179 47.7484 31.94 46.3168 31.94 44.626H30.94H29.94C29.94 45.8958 29.5642 46.6846 28.9571 47.185C28.313 47.7159 27.2363 48.0668 25.5528 48.0668V49.0668ZM30.94 44.626H31.94C31.94 42.8972 31.4248 41.4322 30.2414 40.4248C29.0889 39.4436 27.4669 39.0396 25.5528 39.0396V40.0396V41.0396C27.2302 41.0396 28.3017 41.4001 28.945 41.9477C29.5574 42.469 29.94 43.2972 29.94 44.626H30.94ZM25.5528 40.0396V39.0396H18.3456V40.0396V41.0396H25.5528V40.0396ZM18.3456 40.0396H17.3456V49.0668H18.3456H19.3456V40.0396H18.3456ZM26.6448 68.5044V69.5044C28.5558 69.5044 30.1753 69.1078 31.3274 68.1426C32.5134 67.1489 33.032 65.7005 33.032 63.9908H32.032H31.032C31.032 65.2902 30.6527 66.0987 30.043 66.6095C29.3994 67.1488 28.3253 67.5044 26.6448 67.5044V68.5044ZM32.032 63.9908H33.032C33.032 62.2147 32.4664 60.718 31.2237 59.6617L30.576 60.4236L29.9284 61.1856C30.627 61.7794 31.032 62.6608 31.032 63.9908H32.032ZM30.576 60.4236L31.2428 59.6784C30.0739 58.6326 28.4643 58.186 26.572 58.186V59.186V60.186C28.1741 60.186 29.2338 60.5646 29.9092 61.1689L30.576 60.4236ZM26.572 59.186V58.186H18.3456V59.186V60.186H26.572V59.186ZM18.3456 59.186H17.3456V68.5044H18.3456H19.3456V59.186H18.3456ZM18.3456 68.5044V69.5044H26.6448V68.5044V67.5044H18.3456V68.5044ZM67.187 40.1124V39.1124H66.187V40.1124H67.187ZM67.187 48.4844H66.187V49.4844H67.187V48.4844ZM83.567 48.4844H84.567V47.4844H83.567V48.4844ZM83.567 59.3316V60.3316H84.567V59.3316H83.567ZM67.187 59.3316V58.3316H66.187V59.3316H67.187ZM67.187 68.5772H66.187V69.5772H67.187V68.5772ZM85.751 68.5772H86.751V67.5772H85.751V68.5772ZM85.751 80.0068V81.0068H86.751V80.0068H85.751ZM52.9182 80.0068H51.9182V81.0068H52.9182V80.0068ZM52.9182 28.6828V27.6828H51.9182V28.6828H52.9182ZM85.751 28.6828H86.751V27.6828H85.751V28.6828ZM85.751 40.1124V41.1124H86.751V40.1124H85.751ZM67.187 40.1124H66.187V48.4844H67.187H68.187V40.1124H67.187ZM67.187 48.4844V49.4844H83.567V48.4844V47.4844H67.187V48.4844ZM83.567 48.4844H82.567V59.3316H83.567H84.567V48.4844H83.567ZM83.567 59.3316V58.3316H67.187V59.3316V60.3316H83.567V59.3316ZM67.187 59.3316H66.187V68.5772H67.187H68.187V59.3316H67.187ZM67.187 68.5772V69.5772H85.751V68.5772V67.5772H67.187V68.5772ZM85.751 68.5772H84.751V80.0068H85.751H86.751V68.5772H85.751ZM85.751 80.0068V79.0068H52.9182V80.0068V81.0068H85.751V80.0068ZM52.9182 80.0068H53.9182V28.6828H52.9182H51.9182V80.0068H52.9182ZM52.9182 28.6828V29.6828H85.751V28.6828V27.6828H52.9182V28.6828ZM85.751 28.6828H84.751V40.1124H85.751H86.751V28.6828H85.751ZM85.751 40.1124V39.1124H67.187V40.1124V41.1124H85.751V40.1124ZM125.562 45.5724L124.707 46.0914L124.999 46.5724H125.562V45.5724ZM122.14 42.442L121.681 43.3303L121.693 43.3365L122.14 42.442ZM108.599 44.8444L107.855 44.1771L107.847 44.1859L108.599 44.8444ZM108.818 64.3548L108.088 65.0388L108.096 65.0466L108.103 65.0543L108.818 64.3548ZM129.202 61.006L130.106 61.4337L130.781 60.006H129.202V61.006ZM114.86 61.006H113.86V62.006H114.86V61.006ZM114.86 50.7412V49.7412H113.86V50.7412H114.86ZM141.505 50.7412H142.505V49.7412H141.505V50.7412ZM141.505 64.5732L142.43 64.9532L142.505 64.7706V64.5732H141.505ZM136.555 72.2172L135.818 71.5408L135.811 71.5491L136.555 72.2172ZM128.401 78.114L128.816 79.024L128.827 79.0189L128.401 78.114ZM103.431 77.0948L102.937 77.9644L102.943 77.968L102.95 77.9715L103.431 77.0948ZM94.2578 67.8492L93.3766 68.3221L93.3801 68.3285L93.3836 68.3349L94.2578 67.8492ZM94.2578 40.7676L93.3811 40.2865L93.3791 40.2903L94.2578 40.7676ZM103.431 31.522L103.916 32.3962L103.924 32.3916L103.431 31.522ZM133.06 32.8324L132.468 33.638L132.468 33.638L133.06 32.8324ZM140.923 45.5724V46.5724H142.13L141.905 45.3865L140.923 45.5724ZM125.562 45.5724L126.417 45.0535C125.491 43.5295 124.208 42.3577 122.587 41.5476L122.14 42.442L121.693 43.3365C122.985 43.9823 123.982 44.8975 124.707 46.0914L125.562 45.5724ZM122.14 42.442L122.6 41.5538C121.022 40.7376 119.183 40.35 117.117 40.35V41.35V42.35C118.934 42.35 120.444 42.6904 121.681 43.3302L122.14 42.442ZM117.117 41.35V40.35C113.288 40.35 110.16 41.6035 107.855 44.1772L108.599 44.8444L109.344 45.5117C111.212 43.4262 113.763 42.35 117.117 42.35V41.35ZM108.599 44.8444L107.847 44.1859C105.61 46.7428 104.542 50.1296 104.542 54.2356H105.542H106.542C106.542 50.4793 107.512 47.6052 109.352 45.5029L108.599 44.8444ZM105.542 54.2356H104.542C104.542 58.808 105.673 62.4628 108.088 65.0388L108.818 64.3548L109.547 63.6709C107.594 61.5877 106.542 58.4964 106.542 54.2356H105.542ZM108.818 64.3548L108.103 65.0543C110.579 67.5837 114.099 68.7764 118.5 68.7764V67.7764V66.7764C114.456 66.7764 111.522 65.6881 109.532 63.6554L108.818 64.3548ZM118.5 67.7764V68.7764C121.154 68.7764 123.488 68.1759 125.459 66.9289C127.431 65.6819 128.972 63.83 130.106 61.4337L129.202 61.006L128.298 60.5784C127.296 62.6956 125.986 64.229 124.39 65.2388C122.794 66.2486 120.846 66.7764 118.5 66.7764V67.7764ZM129.202 61.006V60.006H114.86V61.006V62.006H129.202V61.006ZM114.86 61.006H115.86V50.7412H114.86H113.86V61.006H114.86ZM114.86 50.7412V51.7412H141.505V50.7412V49.7412H114.86V50.7412ZM141.505 50.7412H140.505V64.5732H141.505H142.505V50.7412H141.505ZM141.505 64.5732L140.58 64.1933C139.513 66.7917 137.93 69.241 135.818 71.5408L136.555 72.2172L137.291 72.8936C139.547 70.4372 141.265 67.7905 142.43 64.9532L141.505 64.5732ZM136.555 72.2172L135.811 71.5491C133.776 73.8148 131.172 75.705 127.975 77.2092L128.401 78.114L128.827 79.0189C132.231 77.4169 135.062 75.3759 137.299 72.8854L136.555 72.2172ZM128.401 78.114L127.986 77.2041C124.836 78.6403 121.22 79.3708 117.117 79.3708V80.3708V81.3708C121.459 81.3708 125.366 80.5968 128.816 79.0239L128.401 78.114ZM117.117 80.3708V79.3708C112.118 79.3708 107.725 78.311 103.912 76.2182L103.431 77.0948L102.95 77.9715C107.095 80.2467 111.827 81.3708 117.117 81.3708V80.3708ZM103.431 77.0948L103.924 76.2253C100.152 74.0829 97.2263 71.1334 95.132 67.3636L94.2578 67.8492L93.3836 68.3349C95.6573 72.4274 98.8469 75.6417 102.937 77.9644L103.431 77.0948ZM94.2578 67.8492L95.139 67.3764C93.0911 63.5599 92.0546 59.1881 92.0546 54.2356H91.0546H90.0546C90.0546 59.4752 91.1536 64.1791 93.3766 68.3221L94.2578 67.8492ZM91.0546 54.2356H92.0546C92.0546 49.3332 93.0904 45.0117 95.1365 41.245L94.2578 40.7676L93.3791 40.2903C91.1543 44.386 90.0546 49.0431 90.0546 54.2356H91.0546ZM94.2578 40.7676L95.1345 41.2487C97.2287 37.4326 100.151 34.4877 103.916 32.3962L103.431 31.522L102.945 30.6479C98.8473 32.9243 95.6549 36.1432 93.3811 40.2865L94.2578 40.7676ZM103.431 31.522L103.924 32.3916C107.685 30.2558 112.049 29.1732 117.044 29.1732V28.1732V27.1732C111.751 27.1732 107.038 28.3232 102.937 30.6525L103.431 31.522ZM117.044 28.1732V29.1732C123.336 29.1732 128.453 30.685 132.468 33.638L133.06 32.8324L133.653 32.0269C129.222 28.7676 123.662 27.1732 117.044 27.1732V28.1732ZM133.06 32.8324L132.468 33.638C136.476 36.5869 138.965 40.607 139.94 45.7583L140.923 45.5724L141.905 45.3865C140.841 39.7635 138.089 35.2903 133.653 32.0269L133.06 32.8324ZM140.923 45.5724V44.5724H125.562V45.5724V46.5724H140.923V45.5724ZM162.168 28.6828H163.168V27.6828H162.168V28.6828ZM162.168 80.0068V81.0068H163.168V80.0068H162.168ZM147.899 80.0068H146.899V81.0068H147.899V80.0068ZM147.899 28.6828V27.6828H146.899V28.6828H147.899ZM162.168 28.6828H161.168V80.0068H162.168H163.168V28.6828H162.168ZM162.168 80.0068V79.0068H147.899V80.0068V81.0068H162.168V80.0068ZM147.899 80.0068H148.899V28.6828H147.899H146.899V80.0068H147.899ZM147.899 28.6828V29.6828H162.168V28.6828V27.6828H147.899V28.6828ZM217.832 80.0068V81.0068H218.832V80.0068H217.832ZM203.564 80.0068L202.73 80.5591L203.027 81.0068H203.564V80.0068ZM184.563 51.3236L185.396 50.7714L183.563 48.0033V51.3236H184.563ZM184.563 80.0068V81.0068H185.563V80.0068H184.563ZM170.294 80.0068H169.294V81.0068H170.294V80.0068ZM170.294 28.6828V27.6828H169.294V28.6828H170.294ZM184.563 28.6828L185.4 28.1354L185.104 27.6828H184.563V28.6828ZM203.564 57.73L202.727 58.2775L204.564 61.0855V57.73H203.564ZM203.564 28.6828V27.6828H202.564V28.6828H203.564ZM217.832 28.6828H218.832V27.6828H217.832V28.6828ZM217.832 80.0068V79.0068H203.564V80.0068V81.0068H217.832V80.0068ZM203.564 80.0068L204.397 79.4546L185.396 50.7714L184.563 51.3236L183.729 51.8759L202.73 80.5591L203.564 80.0068ZM184.563 51.3236H183.563V80.0068H184.563H185.563V51.3236H184.563ZM184.563 80.0068V79.0068H170.294V80.0068V81.0068H184.563V80.0068ZM170.294 80.0068H171.294V28.6828H170.294H169.294V80.0068H170.294ZM170.294 28.6828V29.6828H184.563V28.6828V27.6828H170.294V28.6828ZM184.563 28.6828L183.726 29.2302L202.727 58.2775L203.564 57.73L204.4 57.1826L185.4 28.1354L184.563 28.6828ZM203.564 57.73H204.564V28.6828H203.564H202.564V57.73H203.564ZM203.564 28.6828V29.6828H217.832V28.6828V27.6828H203.564V28.6828ZM217.832 28.6828H216.832V80.0068H217.832H218.832V28.6828H217.832ZM273.499 80.0068V81.0068H274.499V80.0068H273.499ZM259.23 80.0068L258.396 80.5591L258.693 81.0068H259.23V80.0068ZM240.229 51.3236L241.063 50.7714L239.229 48.0033V51.3236H240.229ZM240.229 80.0068V81.0068H241.229V80.0068H240.229ZM225.96 80.0068H224.96V81.0068H225.96V80.0068ZM225.96 28.6828V27.6828H224.96V28.6828H225.96ZM240.229 28.6828L241.066 28.1354L240.77 27.6828H240.229V28.6828ZM259.23 57.73L258.393 58.2775L260.23 61.0855V57.73H259.23ZM259.23 28.6828V27.6828H258.23V28.6828H259.23ZM273.499 28.6828H274.499V27.6828H273.499V28.6828ZM273.499 80.0068V79.0068H259.23V80.0068V81.0068H273.499V80.0068ZM259.23 80.0068L260.064 79.4546L241.063 50.7714L240.229 51.3236L239.396 51.8759L258.396 80.5591L259.23 80.0068ZM240.229 51.3236H239.229V80.0068H240.229H241.229V51.3236H240.229ZM240.229 80.0068V79.0068H225.96V80.0068V81.0068H240.229V80.0068ZM225.96 80.0068H226.96V28.6828H225.96H224.96V80.0068H225.96ZM225.96 28.6828V29.6828H240.229V28.6828V27.6828H225.96V28.6828ZM240.229 28.6828L239.392 29.2302L258.393 58.2775L259.23 57.73L260.067 57.1826L241.066 28.1354L240.229 28.6828ZM259.23 57.73H260.23V28.6828H259.23H258.23V57.73H259.23ZM259.23 28.6828V29.6828H273.499V28.6828V27.6828H259.23V28.6828ZM273.499 28.6828H272.499V80.0068H273.499H274.499V28.6828H273.499ZM295.896 28.6828H296.896V27.6828H295.896V28.6828ZM295.896 80.0068V81.0068H296.896V80.0068H295.896ZM281.627 80.0068H280.627V81.0068H281.627V80.0068ZM281.627 28.6828V27.6828H280.627V28.6828H281.627ZM295.896 28.6828H294.896V80.0068H295.896H296.896V28.6828H295.896ZM295.896 80.0068V79.0068H281.627V80.0068V81.0068H295.896V80.0068ZM281.627 80.0068H282.627V28.6828H281.627H280.627V80.0068H281.627ZM281.627 28.6828V29.6828H295.896V28.6828V27.6828H281.627V28.6828ZM336.126 80.0068L335.302 80.5739L335.601 81.0068H336.126V80.0068ZM326.153 65.5196L326.976 64.9526L326.086 63.6596L325.291 65.0128L326.153 65.5196ZM317.635 80.0068V81.0068H318.207L318.497 80.5137L317.635 80.0068ZM301.401 80.0068L300.556 79.4712L299.582 81.0068H301.401V80.0068ZM318.072 53.726L318.916 54.2617L319.27 53.7033L318.895 53.1587L318.072 53.726ZM300.818 28.6828V27.6828H298.915L299.995 29.2502L300.818 28.6828ZM317.635 28.6828L318.46 28.1174L318.162 27.6828H317.635V28.6828ZM327.317 42.806L326.493 43.3715L327.382 44.6693L328.18 43.3127L327.317 42.806ZM335.617 28.6828V27.6828H335.044L334.754 28.1762L335.617 28.6828ZM351.851 28.6828L352.695 29.2199L353.673 27.6828H351.851V28.6828ZM335.398 54.5268L334.555 53.9898L334.199 54.5485L334.575 55.094L335.398 54.5268ZM352.943 80.0068V81.0068H354.846L353.767 79.4397L352.943 80.0068ZM336.126 80.0068L336.95 79.4398L326.976 64.9526L326.153 65.5196L325.329 66.0867L335.302 80.5739L336.126 80.0068ZM326.153 65.5196L325.291 65.0128L316.773 79.5L317.635 80.0068L318.497 80.5137L327.015 66.0265L326.153 65.5196ZM317.635 80.0068V79.0068H301.401V80.0068V81.0068H317.635V80.0068ZM301.401 80.0068L302.245 80.5425L318.916 54.2617L318.072 53.726L317.227 53.1904L300.556 79.4712L301.401 80.0068ZM318.072 53.726L318.895 53.1587L301.642 28.1155L300.818 28.6828L299.995 29.2502L317.248 54.2934L318.072 53.726ZM300.818 28.6828V29.6828H317.635V28.6828V27.6828H300.818V28.6828ZM317.635 28.6828L316.81 29.2483L326.493 43.3715L327.317 42.806L328.142 42.2406L318.46 28.1174L317.635 28.6828ZM327.317 42.806L328.18 43.3127L336.479 29.1895L335.617 28.6828L334.754 28.1762L326.455 42.2994L327.317 42.806ZM335.617 28.6828V29.6828H351.851V28.6828V27.6828H335.617V28.6828ZM351.851 28.6828L351.007 28.1458L334.555 53.9898L335.398 54.5268L336.242 55.0639L352.695 29.2199L351.851 28.6828ZM335.398 54.5268L334.575 55.094L352.119 80.574L352.943 80.0068L353.767 79.4397L336.222 53.9597L335.398 54.5268ZM352.943 80.0068V79.0068H336.126V80.0068V81.0068H352.943V80.0068Z" fill="black" mask="url(#path-1-inside-1_571_9148)"/>
<path d="M261.491 67.0068L252.68 57.1973C237.606 70.2225 232.304 78.3631 221.5 80.3965C211.294 80.9092 205 80.3965 182 80.3965H169.5C169.5 80.3965 211 75.3969 239.52 42.5469L230.756 32.79L286.006 14.3857L261.491 67.0068Z" fill="#DB143C"/>
</svg>
